# xmcd
#
# Track frame offsets: 
#        150
#        23425
#        47307
#        63915
#        83567
#        100555
#        124950
#        145320
#        166725
#        185105
#        206845
#
# Disc length: 3082 seconds
#
# Revision: 2
# Processed by: cddbd v1.5.2PL0 Copyright (c) Steve Scherf et al.
# Submitted via: ExactAudioCopy v0.95b4
#
DISCID=880c080b
DTITLE=Latimore - Slow Down
DYEAR=1900
DGENRE=Blues
TTITLE0=Slow Down (But Don't Stop)
TTITLE1=That's The Way I Do It
TTITLE2=Get Up, Start Dancing
TTITLE3=Breakdown
TTITLE4=Careful Man
TTITLE5=All You'll Ever Need
TTITLE6=One Man, One Woman, One Love
TTITLE7=Too Many Lovers
TTITLE8=Paradise
TTITLE9=Blues Territory
TTITLE10=You Still Make Me Feel Good
EXTD=
EXTT0=
EXTT1=
EXTT2=
EXTT3=
EXTT4=
EXTT5=
EXTT6=
EXTT7=
EXTT8=
EXTT9=
EXTT10=
PLAYORDER=
